{
	"asset":{
		"generator":"Khronos glTF Blender I/O v4.2.57",
		"version":"2.0"
	},
	"extensionsUsed":[
		"KHR_lights_punctual"
	],
	"extensionsRequired":[
		"KHR_lights_punctual"
	],
	"extensions":{
		"KHR_lights_punctual":{
			"lights":[
				{
					"color":[
						1,
						1,
						1
					],
					"intensity":54351.41306588226,
					"type":"point",
					"name":"Light"
				}
			]
		}
	},
	"scene":0,
	"scenes":[
		{
			"name":"Scene",
			"nodes":[
				0,
				1,
				2,
				3,
				4,
				5,
				6,
				7,
				8,
				9,
				10,
				11,
				12,
				13
			]
		}
	],
	"nodes":[
		{
			"mesh":0,
			"name":"Cube"
		},
		{
			"extensions":{
				"KHR_lights_punctual":{
					"light":0
				}
			},
			"name":"Light",
			"rotation":[
				-0.28416627645492554,
				0.7269423007965088,
				0.34203392267227173,
				0.5232754945755005
			],
			"translation":[
				4.076245307922363,
				5.903861999511719,
				-1.0054539442062378
			]
		},
		{
			"mesh":1,
			"name":"Plane",
			"translation":[
				0,
				-1,
				0
			]
		},
		{
			"mesh":2,
			"name":"Sphere",
			"translation":[
				-3,
				0,
				0
			]
		},
		{
			"mesh":3,
			"name":"Icosphere",
			"translation":[
				-6,
				0,
				0
			]
		},
		{
			"mesh":4,
			"name":"Cylinder",
			"translation":[
				3,
				0,
				0
			]
		},
		{
			"mesh":5,
			"name":"Cone",
			"translation":[
				6,
				0,
				0
			]
		},
		{
			"mesh":6,
			"name":"Torus",
			"translation":[
				0,
				3,
				0
			]
		},
		{
			"mesh":7,
			"name":"Suzanne",
			"translation":[
				-3,
				3,
				0
			]
		},
		{
			"mesh":8,
			"name":"rock",
			"translation":[
				-6,
				3,
				0
			]
		},
		{
			"mesh":9,
			"name":"TwistedTorus",
			"translation":[
				3,
				3,
				0
			]
		},
		{
			"mesh":10,
			"name":"TorusKnot",
			"translation":[
				0,
				7,
				0
			]
		},
		{
			"mesh":11,
			"name":"Gear"
		},
		{
			"mesh":12,
			"name":"Star",
			"translation":[
				0,
				0,
				4
			]
		}
	],
	"materials":[
		{
			"doubleSided":true,
			"extras":{
				"skein":[
					{
						"replace_material::UseDebugMaterial":{}
					}
				]
			},
			"name":"BevyDebugMaterial",
			"pbrMetallicRoughness":{
				"baseColorFactor":[
					0.800000011920929,
					0.800000011920929,
					0.800000011920929,
					1
				],
				"metallicFactor":0,
				"roughnessFactor":0.5
			}
		}
	],
	"meshes":[
		{
			"name":"Cube",
			"primitives":[
				{
					"attributes":{
						"POSITION":0,
						"NORMAL":1,
						"TEXCOORD_0":2
					},
					"indices":3,
					"material":0
				}
			]
		},
		{
			"name":"Plane",
			"primitives":[
				{
					"attributes":{
						"POSITION":4,
						"NORMAL":5,
						"TEXCOORD_0":6
					},
					"indices":7,
					"material":0
				}
			]
		},
		{
			"name":"Sphere",
			"primitives":[
				{
					"attributes":{
						"POSITION":8,
						"NORMAL":9,
						"TEXCOORD_0":10
					},
					"indices":11,
					"material":0
				}
			]
		},
		{
			"name":"Icosphere",
			"primitives":[
				{
					"attributes":{
						"POSITION":12,
						"NORMAL":13,
						"TEXCOORD_0":14
					},
					"indices":15,
					"material":0
				}
			]
		},
		{
			"name":"Cylinder",
			"primitives":[
				{
					"attributes":{
						"POSITION":16,
						"NORMAL":17,
						"TEXCOORD_0":18
					},
					"indices":19,
					"material":0
				}
			]
		},
		{
			"name":"Cone",
			"primitives":[
				{
					"attributes":{
						"POSITION":20,
						"NORMAL":21,
						"TEXCOORD_0":22
					},
					"indices":23,
					"material":0
				}
			]
		},
		{
			"name":"Torus",
			"primitives":[
				{
					"attributes":{
						"POSITION":24,
						"NORMAL":25,
						"TEXCOORD_0":26
					},
					"indices":27,
					"material":0
				}
			]
		},
		{
			"name":"Suzanne",
			"primitives":[
				{
					"attributes":{
						"POSITION":28,
						"NORMAL":29,
						"TEXCOORD_0":30
					},
					"indices":31,
					"material":0
				}
			]
		},
		{
			"name":"rock",
			"primitives":[
				{
					"attributes":{
						"POSITION":32,
						"NORMAL":33
					},
					"indices":34,
					"material":0
				}
			]
		},
		{
			"name":"TwistedTorus",
			"primitives":[
				{
					"attributes":{
						"POSITION":35,
						"NORMAL":36
					},
					"indices":37,
					"material":0
				}
			]
		},
		{
			"name":"TorusKnot",
			"primitives":[
				{
					"attributes":{
						"POSITION":38,
						"NORMAL":39
					},
					"indices":40,
					"material":0
				}
			]
		},
		{
			"name":"Gear",
			"primitives":[
				{
					"attributes":{
						"POSITION":41,
						"NORMAL":42
					},
					"indices":43,
					"material":0
				}
			]
		},
		{
			"name":"Star",
			"primitives":[
				{
					"attributes":{
						"POSITION":44,
						"NORMAL":45
					},
					"indices":46,
					"material":0
				}
			]
		}
	],
	"accessors":[
		{
			"bufferView":0,
			"componentType":5126,
			"count":24,
			"max":[
				1,
				1,
				1
			],
			"min":[
				-1,
				-1,
				-1
			],
			"type":"VEC3"
		},
		{
			"bufferView":1,
			"componentType":5126,
			"count":24,
			"type":"VEC3"
		},
		{
			"bufferView":2,
			"componentType":5126,
			"count":24,
			"type":"VEC2"
		},
		{
			"bufferView":3,
			"componentType":5123,
			"count":36,
			"type":"SCALAR"
		},
		{
			"bufferView":4,
			"componentType":5126,
			"count":4,
			"max":[
				10,
				0,
				10
			],
			"min":[
				-10,
				0,
				-10
			],
			"type":"VEC3"
		},
		{
			"bufferView":5,
			"componentType":5126,
			"count":4,
			"type":"VEC3"
		},
		{
			"bufferView":6,
			"componentType":5126,
			"count":4,
			"type":"VEC2"
		},
		{
			"bufferView":7,
			"componentType":5123,
			"count":6,
			"type":"SCALAR"
		},
		{
			"bufferView":8,
			"componentType":5126,
			"count":1984,
			"max":[
				0.9999997019767761,
				1,
				0.9999993443489075
			],
			"min":[
				-0.9999990463256836,
				-1,
				-1
			],
			"type":"VEC3"
		},
		{
			"bufferView":9,
			"componentType":5126,
			"count":1984,
			"type":"VEC3"
		},
		{
			"bufferView":10,
			"componentType":5126,
			"count":1984,
			"type":"VEC2"
		},
		{
			"bufferView":11,
			"componentType":5123,
			"count":2880,
			"type":"SCALAR"
		},
		{
			"bufferView":12,
			"componentType":5126,
			"count":240,
			"max":[
				0.9510578513145447,
				1,
				0.9999999403953552
			],
			"min":[
				-0.9510578513145447,
				-1,
				-0.9999999403953552
			],
			"type":"VEC3"
		},
		{
			"bufferView":13,
			"componentType":5126,
			"count":240,
			"type":"VEC3"
		},
		{
			"bufferView":14,
			"componentType":5126,
			"count":240,
			"type":"VEC2"
		},
		{
			"bufferView":15,
			"componentType":5123,
			"count":240,
			"type":"SCALAR"
		},
		{
			"bufferView":16,
			"componentType":5126,
			"count":192,
			"max":[
				1,
				1,
				1
			],
			"min":[
				-1,
				-1,
				-1
			],
			"type":"VEC3"
		},
		{
			"bufferView":17,
			"componentType":5126,
			"count":192,
			"type":"VEC3"
		},
		{
			"bufferView":18,
			"componentType":5126,
			"count":192,
			"type":"VEC2"
		},
		{
			"bufferView":19,
			"componentType":5123,
			"count":372,
			"type":"SCALAR"
		},
		{
			"bufferView":20,
			"componentType":5126,
			"count":128,
			"max":[
				1,
				1,
				1
			],
			"min":[
				-1,
				-1,
				-1
			],
			"type":"VEC3"
		},
		{
			"bufferView":21,
			"componentType":5126,
			"count":128,
			"type":"VEC3"
		},
		{
			"bufferView":22,
			"componentType":5126,
			"count":128,
			"type":"VEC2"
		},
		{
			"bufferView":23,
			"componentType":5123,
			"count":186,
			"type":"SCALAR"
		},
		{
			"bufferView":24,
			"componentType":5126,
			"count":2304,
			"max":[
				1.25,
				1.25,
				0.2500000298023224
			],
			"min":[
				-1.25,
				-1.25,
				-0.2500000298023224
			],
			"type":"VEC3"
		},
		{
			"bufferView":25,
			"componentType":5126,
			"count":2304,
			"type":"VEC3"
		},
		{
			"bufferView":26,
			"componentType":5126,
			"count":2304,
			"type":"VEC2"
		},
		{
			"bufferView":27,
			"componentType":5123,
			"count":3456,
			"type":"SCALAR"
		},
		{
			"bufferView":28,
			"componentType":5126,
			"count":1966,
			"max":[
				1.3671875,
				0.984375,
				0.8515625
			],
			"min":[
				-1.3671875,
				-0.984375,
				-0.8515625
			],
			"type":"VEC3"
		},
		{
			"bufferView":29,
			"componentType":5126,
			"count":1966,
			"type":"VEC3"
		},
		{
			"bufferView":30,
			"componentType":5126,
			"count":1966,
			"type":"VEC2"
		},
		{
			"bufferView":31,
			"componentType":5123,
			"count":2904,
			"type":"SCALAR"
		},
		{
			"bufferView":32,
			"componentType":5126,
			"count":8,
			"max":[
				0.5,
				0.5,
				0.5
			],
			"min":[
				-0.5,
				-0.5,
				-0.5
			],
			"type":"VEC3"
		},
		{
			"bufferView":33,
			"componentType":5126,
			"count":8,
			"type":"VEC3"
		},
		{
			"bufferView":34,
			"componentType":5123,
			"count":36,
			"type":"SCALAR"
		},
		{
			"bufferView":35,
			"componentType":5126,
			"count":2304,
			"max":[
				1.25,
				1.2500001192092896,
				0.2500000298023224
			],
			"min":[
				-1.25,
				-1.2500001192092896,
				-0.2500000298023224
			],
			"type":"VEC3"
		},
		{
			"bufferView":36,
			"componentType":5126,
			"count":2304,
			"type":"VEC3"
		},
		{
			"bufferView":37,
			"componentType":5123,
			"count":3456,
			"type":"SCALAR"
		},
		{
			"bufferView":38,
			"componentType":5126,
			"count":2560,
			"max":[
				2.5461153984069824,
				1.484774112701416,
				3.2030553817749023
			],
			"min":[
				-3.498255729675293,
				-1.4793550968170166,
				-3.202956199645996
			],
			"type":"VEC3"
		},
		{
			"bufferView":39,
			"componentType":5126,
			"count":2560,
			"type":"VEC3"
		},
		{
			"bufferView":40,
			"componentType":5123,
			"count":3840,
			"type":"SCALAR"
		},
		{
			"bufferView":41,
			"componentType":5126,
			"count":720,
			"max":[
				7.085244655609131,
				4.085244655609131,
				0.20000004768371582
			],
			"min":[
				4.914755344390869,
				1.9147553443908691,
				-0.20000004768371582
			],
			"type":"VEC3"
		},
		{
			"bufferView":42,
			"componentType":5126,
			"count":720,
			"type":"VEC3"
		},
		{
			"bufferView":43,
			"componentType":5123,
			"count":1728,
			"type":"SCALAR"
		},
		{
			"bufferView":44,
			"componentType":5126,
			"count":62,
			"max":[
				0.80901700258255,
				0.25,
				0.9510565400123596
			],
			"min":[
				-1,
				-0.25,
				-0.9510565400123596
			],
			"type":"VEC3"
		},
		{
			"bufferView":45,
			"componentType":5126,
			"count":62,
			"type":"VEC3"
		},
		{
			"bufferView":46,
			"componentType":5123,
			"count":120,
			"type":"SCALAR"
		}
	],
	"bufferViews":[
		{
			"buffer":0,
			"byteLength":288,
			"byteOffset":0,
			"target":34962
		},
		{
			"buffer":0,
			"byteLength":288,
			"byteOffset":288,
			"target":34962
		},
		{
			"buffer":0,
			"byteLength":192,
			"byteOffset":576,
			"target":34962
		},
		{
			"buffer":0,
			"byteLength":72,
			"byteOffset":768,
			"target":34963
		},
		{
			"buffer":0,
			"byteLength":48,
			"byteOffset":840,
			"target":34962
		},
		{
			"buffer":0,
			"byteLength":48,
			"byteOffset":888,
			"target":34962
		},
		{
			"buffer":0,
			"byteLength":32,
			"byteOffset":936,
			"target":34962
		},
		{
			"buffer":0,
			"byteLength":12,
			"byteOffset":968,
			"target":34963
		},
		{
			"buffer":0,
			"byteLength":23808,
			"byteOffset":980,
			"target":34962
		},
		{
			"buffer":0,
			"byteLength":23808,
			"byteOffset":24788,
			"target":34962
		},
		{
			"buffer":0,
			"byteLength":15872,
			"byteOffset":48596,
			"target":34962
		},
		{
			"buffer":0,
			"byteLength":5760,
			"byteOffset":64468,
			"target":34963
		},
		{
			"buffer":0,
			"byteLength":2880,
			"byteOffset":70228,
			"target":34962
		},
		{
			"buffer":0,
			"byteLength":2880,
			"byteOffset":73108,
			"target":34962
		},
		{
			"buffer":0,
			"byteLength":1920,
			"byteOffset":75988,
			"target":34962
		},
		{
			"buffer":0,
			"byteLength":480,
			"byteOffset":77908,
			"target":34963
		},
		{
			"buffer":0,
			"byteLength":2304,
			"byteOffset":78388,
			"target":34962
		},
		{
			"buffer":0,
			"byteLength":2304,
			"byteOffset":80692,
			"target":34962
		},
		{
			"buffer":0,
			"byteLength":1536,
			"byteOffset":82996,
			"target":34962
		},
		{
			"buffer":0,
			"byteLength":744,
			"byteOffset":84532,
			"target":34963
		},
		{
			"buffer":0,
			"byteLength":1536,
			"byteOffset":85276,
			"target":34962
		},
		{
			"buffer":0,
			"byteLength":1536,
			"byteOffset":86812,
			"target":34962
		},
		{
			"buffer":0,
			"byteLength":1024,
			"byteOffset":88348,
			"target":34962
		},
		{
			"buffer":0,
			"byteLength":372,
			"byteOffset":89372,
			"target":34963
		},
		{
			"buffer":0,
			"byteLength":27648,
			"byteOffset":89744,
			"target":34962
		},
		{
			"buffer":0,
			"byteLength":27648,
			"byteOffset":117392,
			"target":34962
		},
		{
			"buffer":0,
			"byteLength":18432,
			"byteOffset":145040,
			"target":34962
		},
		{
			"buffer":0,
			"byteLength":6912,
			"byteOffset":163472,
			"target":34963
		},
		{
			"buffer":0,
			"byteLength":23592,
			"byteOffset":170384,
			"target":34962
		},
		{
			"buffer":0,
			"byteLength":23592,
			"byteOffset":193976,
			"target":34962
		},
		{
			"buffer":0,
			"byteLength":15728,
			"byteOffset":217568,
			"target":34962
		},
		{
			"buffer":0,
			"byteLength":5808,
			"byteOffset":233296,
			"target":34963
		},
		{
			"buffer":0,
			"byteLength":96,
			"byteOffset":239104,
			"target":34962
		},
		{
			"buffer":0,
			"byteLength":96,
			"byteOffset":239200,
			"target":34962
		},
		{
			"buffer":0,
			"byteLength":72,
			"byteOffset":239296,
			"target":34963
		},
		{
			"buffer":0,
			"byteLength":27648,
			"byteOffset":239368,
			"target":34962
		},
		{
			"buffer":0,
			"byteLength":27648,
			"byteOffset":267016,
			"target":34962
		},
		{
			"buffer":0,
			"byteLength":6912,
			"byteOffset":294664,
			"target":34963
		},
		{
			"buffer":0,
			"byteLength":30720,
			"byteOffset":301576,
			"target":34962
		},
		{
			"buffer":0,
			"byteLength":30720,
			"byteOffset":332296,
			"target":34962
		},
		{
			"buffer":0,
			"byteLength":7680,
			"byteOffset":363016,
			"target":34963
		},
		{
			"buffer":0,
			"byteLength":8640,
			"byteOffset":370696,
			"target":34962
		},
		{
			"buffer":0,
			"byteLength":8640,
			"byteOffset":379336,
			"target":34962
		},
		{
			"buffer":0,
			"byteLength":3456,
			"byteOffset":387976,
			"target":34963
		},
		{
			"buffer":0,
			"byteLength":744,
			"byteOffset":391432,
			"target":34962
		},
		{
			"buffer":0,
			"byteLength":744,
			"byteOffset":392176,
			"target":34962
		},
		{
			"buffer":0,
			"byteLength":240,
			"byteOffset":392920,
			"target":34963
		}
	],
	"buffers":[
		{
			"byteLength":393160,
			"uri":"replace_material.bin"
		}
	]
}
